<svg width="20" height="20" viewBox="0 0 188 28" fill="none" xmlns="http://www.w3.org/2000/svg">
<path d="M97.2996 3.4L96.8996 2.2L97.2996 0.1L97.0996 0L91.5996 4.6V4.7L97.2996 3.4Z" fill="#FFFFFF"/>
<path d="M13.3 25.2C12.8056 25.707 12.2146 26.1099 11.562 26.3847C10.9093 26.6595 10.2082 26.8007 9.5 26.8C5.1 26.8 4 22.9 4 18.3C4 13.7 5 9.8 9.4 9.8C10.0811 9.78346 10.7574 9.91841 11.3799 10.1951C12.0025 10.4718 12.5559 10.8834 13 11.4L15.5 15.2H15.7V9.5H15.5L13.2 10.7C12.1382 9.79963 10.7922 9.30373 9.4 9.3C5.1 9.3 0 12.6 0 18.4C0 24.2 5 27.5 9.5 27.5C10.9689 27.4897 12.3865 26.9581 13.5 26L15.7 27.3H15.9V21.3H15.7L13.3 25.2Z" fill="#FFFFFF"/>
<path d="M29.7 9.2C25.5 9.2 20.5 12.8 20.5 18.3C20.5 23.8 25.5 27.4 29.7 27.4C33.9 27.4 38.9 23.8 38.9 18.3C38.9 12.8 34 9.2 29.7 9.2ZM29.7 26.8C25.5 26.8 24.4 23.1 24.4 18.3C24.4 13.5 25.5 9.8 29.7 9.8C33.9 9.8 35 13.5 35 18.3C35 23.1 34 26.8 29.7 26.8Z" fill="#FFFFFF"/>
<path d="M54.7996 10H56.9996V21H56.8996L49.0996 9.5H42.0996V10H44.1996V26.6H42.0996V27.1H47.0996V26.6H44.8996V10L57.4996 27.4H57.6996V10H59.7996V9.5H54.7996V10Z" fill="#FFFFFF"/>
<path d="M71.4996 9.5H63.5996V10H65.8996V26.6H63.5996V27.1H71.4996C75.3996 27.1 81.8996 25.4 81.8996 18.2C81.8996 11 75.3996 9.5 71.4996 9.5ZM71.2996 26.6H69.3996V10H71.2996C75.8996 10 77.9996 13.3 77.9996 18.3C77.9996 23.3 75.8996 26.6 71.2996 26.6Z" fill="#FFFFFF"/>
<path d="M97.5992 26.6H90.9992V17.9H94.2992C95.2411 18.9044 96.0175 20.052 96.5992 21.3H96.7992V14H96.5992C96.0175 15.248 95.2411 16.3956 94.2992 17.4H90.9992V10H96.8992C98.5992 11.1 100.099 14.2 100.099 14.2H100.299V9.5H85.1992V10H87.4992V26.6H85.1992V27.1H100.799V21.2H100.599C99.8763 23.1406 98.865 24.961 97.5992 26.6Z" fill="#FFFFFF"/>
<path d="M124.601 10H126.801V21H126.701L118.901 9.5H111.801V10H114.001V26.6H111.801V27.1H116.801V26.6H114.701V10L127.301 27.4H127.401V10H129.601V9.5H124.601V10Z" fill="#FFFFFF"/>
<path d="M140.9 8.89999H140.7L133.2 26.5H131.1V27H135.8V26.5H133.8L136.5 20.2H142.2L145.1 26.5H142.8V27H151V26.5H148.9L140.9 8.89999ZM136.8 19.8L139.4 13.7L142.1 19.8H136.8V19.8Z" fill="#FFFFFF"/>
<path d="M163.399 16.8L159.899 15.6C158.199 15 156.799 14.2 156.799 12.5C156.799 10.8 158.299 9.7 160.599 9.7C161.173 9.65206 161.75 9.73516 162.287 9.94305C162.824 10.1509 163.307 10.4782 163.699 10.9L166.199 14.7H166.399V9.1H166.199L163.899 10.3C162.985 9.50607 161.81 9.0786 160.599 9.1C159.887 9.0595 159.173 9.16331 158.502 9.40519C157.831 9.64708 157.215 10.0221 156.692 10.5077C156.169 10.9933 155.75 11.5795 155.459 12.2311C155.168 12.8828 155.012 13.5865 154.999 14.3C154.999 16.8 156.799 18.1 158.699 18.8L162.199 20.1C164.099 20.8 165.299 21.6 165.299 23.4C165.299 25.2 164.099 26.7 161.099 26.7C159.642 26.629 158.244 26.1046 157.099 25.2L154.499 20.9H154.199V27H154.499L156.699 25.8C157.912 26.72 159.378 27.2438 160.899 27.3C164.699 27.3 167.199 24.6 167.199 21.6C167.199 18.6 165.599 17.5 163.399 16.8Z" fill="#FFFFFF"/>
<path d="M171.301 9.5V15H171.501C172.356 13.2291 173.395 11.5532 174.601 10H177.701V26.6H174.901V27.1H184.001V26.6H181.201V10H184.301C185.507 11.5532 186.546 13.2291 187.401 15H187.601V9.6H171.301V9.5Z" fill="#FFFFFF"/>
</svg>
