<svg id="Layer_1" data-name="Layer 1" xmlns="http://www.w3.org/2000/svg" viewBox="0 0 275.9584 64.5004">
  <defs>
    <style>
      .cls-1 {
        fill: #FFF;
      }
    </style>
  </defs>
  <title>Artboard 1</title>
  <g>
    <path class="cls-1" d="M122.1963,1.7808l.0118,14.5835h3.0844l-.0117-14.5957a3.6207,3.6207,0,0,1,2.4688-.3408,11.099,11.099,0,0,1,4.4243,1.7807A24.1861,24.1861,0,0,0,131.1207.0064l-14.46.018a19.6669,19.6669,0,0,0-1.2437,3.2232,14.8836,14.8836,0,0,1,3.8965-1.8169C120.0562,1.274,121.6407,1.22,122.1963,1.7808Z"/>
    <polygon class="cls-1" points="136.547 16.352 136.544 8.339 143.16 8.327 143.171 16.346 146.256 16.346 146.245 -0.012 143.154 -0.012 143.16 7.039 136.544 7.039 136.538 0 133.466 0 133.484 16.352 136.547 16.352"/>
    <path class="cls-1" d="M235.2173,60.4043,235.2,42.9112l7.3183-.0059a3.3363,3.3363,0,0,1,2.8789,1.4492l-.0088-5.4931c-1.2285,1.8164-5.248,1.3847-9.7783,1.3974h-.417l-.0088-13.3794c4.47.1148,9.2022-.3623,12.3594,2.5894a17.0864,17.0864,0,0,0-2.2793-5.0191l-15.8477.021.042,38.8184,15.127-.0059a25.6087,25.6087,0,0,0,4.4092-5.4775,22.953,22.953,0,0,1-10.1436,2.87A14.1315,14.1315,0,0,1,235.2173,60.4043Z"/>
    <path class="cls-1" d="M227.3765,59.6465a5.2193,5.2193,0,0,1-3.3535,1.6211,2.0226,2.0226,0,0,1-1.4268-.99c-1.1172-2.7764-.7666-6.833-.84-9.2383-.2441-5.5772.2959-11.834-5.4024-14.8643a6.1249,6.1249,0,0,0-1.9765-.6035c3.9082-4.3642,6.2207-6.9536,9.7695-11.0976H220.17c-3.0274,3.6157-5.1065,5.997-8.584,10.0473l-.6816.6338-.0186-10.666h-5.7764l.042,38.8335,5.77-.0088-.0175-26.3027a3.2805,3.2805,0,0,1,1.1855-.0147,4.7879,4.7879,0,0,1,3.8486,3.7178c1.0567,7.0508-.4433,14.9277,3.22,20.7588a4.4989,4.4989,0,0,0,3.2656,1.8262c2.2734.3408,4.4033-1.3008,5.6445-2.7891l-.0068-.2324C227.8111,60.084,227.7505,59.6465,227.3765,59.6465Z"/>
    <path class="cls-1" d="M135.4639,24.4346h-3.5947c-4.1289,7.645-6.4253,11.9365-9.3472,16.9375L112.4175,24.45h-3.8994c3.7217,6.2144,7.3765,12.3409,11.0313,18.4439l.021,20.3955,5.7739-.0029-.0186-20.3985C128.7515,36.6158,132.1319,30.5616,135.4639,24.4346Z"/>
    <path class="cls-1" d="M158.3531,16.3223a11.8019,11.8019,0,0,0,1.3613-3.1812c-1.41,1.4244-3.9023,2.0581-7.2344,1.6148l-.0127-6.4317h1.3164a7.21,7.21,0,0,1,2.0821.1177,1.6687,1.6687,0,0,1,.8154.7241c-.03-1.0351-.043-1.8408-.043-3.0512-.6152,1.0322-1.5029.9175-2.5859.9175h-1.585l-.0058-5.6377H153.84a5.6318,5.6318,0,0,1,4.3252,1.34,10.888,10.888,0,0,0-1.1377-2.7583l-7.6387.0122.0273,16.3457Z"/>
    <path class="cls-1" d="M202.7974,59.6319c-1.0508,1.1015-2.0225,1.85-3.5557,1.666-1.9892-.5586-2.1064-3.3653-2.3544-4.669-.3165-4.0839.1875-8.1582-1.37-12.2382a7.0415,7.0415,0,0,0-6.1259-3.8428,11.1183,11.1183,0,0,0,5.4921-3.5518c1.917-1.73,2.2217-5.6679,1.4307-7.8384-1.2461-3.0419-4.1767-4.3369-7.4062-4.6445l-10.5664.0029.039,38.8277,5.7715-.0059-.04-36.3257c2.2187,0,4.1865-.1753,5.6347.9956a7.0437,7.0437,0,0,1,1.6758,7.5274c-.68,1.5483-2.6475,4.2617-5.0771,4.6328a1.3246,1.3246,0,0,0,0,.9385,5.1975,5.1975,0,0,1,4.5908,3.3135c.7119,1.5332.5342,7.95,1.1289,11.46.25,2.84,1.0742,6.4619,4.4365,7.4522a6.87,6.87,0,0,0,6.8779-2.7041C203.7994,60.1924,203.3794,59.9063,202.7974,59.6319Z"/>
    <polygon class="cls-1" points="27.29 24.537 24.205 24.537 24.266 49.116 5.016 24.552 0 24.559 0.042 63.41 3.139 63.41 3.112 32.535 27.329 63.389 27.29 24.537"/>
    <path class="cls-1" d="M80.71,52.53l-4.0864-9.3145c3.0874-6.9262,5.5293-12.5214,8.1821-18.7329H81.3194L74.8121,39.3408,67.9732,24.5674H61.6294l10.044,22.1231-2.4717,5.7939L56.4141,24.5069l-6.3774.0092L67.9009,63.3438,73.5386,50.32,79.43,63.3379,96.3858,24.5313l-3.4048.0058C88.605,34.3824,84.9048,43.3037,80.71,52.53Z"/>
    <path class="cls-1" d="M40.1739,60.6514c-.39,0-1.2344.0391-1.6089.0156l-.021-17.6953,5.7134-.0059a6.42,6.42,0,0,1,4.5693,1.8526L48.82,38.8789c-2.2935,1.8145-4.563,1.4248-10.2764,1.4248l-.0093-13.3491c4.5034-.0332,6.07.0576,8.478,1.1714.6851.2261,1.295.73,1.9253.9624a19.6463,19.6463,0,0,0-2.1338-4.5723l-13.9008.0152L32.94,63.38,55.21,63.3584a42.6713,42.6713,0,0,0,3.335-6.3769c-2.77,2.1133-6.2354,2.85-9.7666,3.3681A79.6276,79.6276,0,0,1,40.1739,60.6514Z"/>
    <path class="cls-1" d="M170.6333,31.002a16.4318,16.4318,0,0,0-5.2812-4.4307c-7.2773-4.1709-18.9873-4.0532-25.5908,1.2466-5.8789,4.2524-9.0845,11.8882-8.2212,18.3169.4346,7.1523,5.8916,14.8584,13.1714,17.1543,8.8008,2.7744,18.748.8906,25.2334-6.7666a20.5361,20.5361,0,0,0,4.8261-15.1016,18.341,18.341,0,0,0-2.5625-8.0708A26.5973,26.5973,0,0,0,170.6333,31.002Zm-7.1191,26.3808c-2.1768,2.2032-3.456,3.1-5.5234,3.7159a16.4718,16.4718,0,0,1-3.52.7236c-6.3584.667-11.4023-3.15-14.4951-8.3565-3.7549-6.1152-3.3594-15.2749.9561-21.4619,3.01-4.3247,8.415-6.0239,13.8047-5.5957a13.3188,13.3188,0,0,1,7.9677,3.38c3.1514,2.8521,5.6319,7.3252,5.8194,11.2183C169.1939,47.0586,167.9683,52.877,163.5142,57.3828Z"/>
    <path class="cls-1" d="M275.1919,59.5078c-1.038,1.1319-1.9951,1.8623-3.5371,1.6875-1.9892-.5556-2.1123-3.3808-2.3515-4.666-.3194-4.0781.1689-8.1728-1.3643-12.2656a7.13,7.13,0,0,0-6.15-3.8184,11.02,11.02,0,0,0,5.499-3.5341c1.919-1.7354,2.2305-5.6856,1.4307-7.8589-1.25-3.024-4.1709-4.3311-7.4-4.6265l-10.5517.0088.0332,38.8281,5.7744-.0068-.0459-36.3467c2.2129,0,4.2041-.187,5.6015.99a7,7,0,0,1,1.7149,7.5181c-.6856,1.5635-2.6651,4.2886-5.0772,4.6509a1.1774,1.1774,0,0,0,0,.9385c2.8409.2929,3.7637,1.8506,4.5791,3.3349.7178,1.5157.5313,7.91,1.1407,11.4444.23,2.8525,1.0742,6.4589,4.4248,7.4609a6.8151,6.8151,0,0,0,6.8691-2.7373C276.2183,60.0967,275.7808,59.7823,275.1919,59.5078Z"/>
  </g>
</svg>
