<?xml version="1.0" encoding="UTF-8"?>
<svg width="400px" height="88px" viewBox="0 0 400 88" version="1.1" xmlns="http://www.w3.org/2000/svg" xmlns:xlink="http://www.w3.org/1999/xlink">
    <!-- Generator: Sketch 52.3 (67297) - http://www.bohemiancoding.com/sketch -->
    <title>logo / Vanity Fair</title>
    <desc>Created with Sketch.</desc>
    <defs>
        <polygon id="path-1" points="350.433922 0.225063939 399.999932 0.225063939 399.999932 87.9792716 350.433922 87.9792716"></polygon>
    </defs>
    <g id="&gt;&gt;&gt;-3.-Brands-&amp;-Footprint" stroke="none" stroke-width="1" fill="none" fill-rule="evenodd">
        <g id="CNI-Brands---Logos" transform="translate(-1732.000000, -1023.000000)">
            <g id="logo-/-Vanity-Fair" transform="translate(1732.000000, 1023.000000)">
                <g id="Group">
                    <polygon id="Fill-1" fill="#FFF" points="30.8264941 0.225086445 30.8264941 2.15545985 36.963354 2.15545985 25.9270006 69.7133524 16.0429263 2.15545985 21.4930107 2.15545985 21.4930107 0.225086445 -6.75295434e-05 0.225086445 -6.75295434e-05 2.15545985 2.64506472 2.15545985 15.6688126 87.9793166 25.1945301 87.9793166 39.4612718 2.15545985 43.0659989 2.15545985 43.0659989 0.225086445"></polygon>
                    <path d="M52.302915,0.225086445 L61.9369049,0.225086445 L76.0384243,86.0489432 L78.6493416,86.0489432 L78.6493416,87.9793166 L57.1398312,87.9793166 L57.1398312,86.0489432 L62.6403376,86.0489432 L58.570332,61.3004624 L44.6666742,61.3004624 L40.5856387,86.0489432 L46.4438267,86.0489432 L46.4438267,87.9793166 L34.4708385,87.9793166 L34.4708385,86.0489432 L38.0877209,86.0489432 L52.302915,0.225086445 Z M51.6273945,18.0938128 L45.0362859,59.1438997 L58.3092178,59.1438997 L51.6273945,18.0938128 Z" id="Combined-Shape" fill="#FFF"></path>
                    <polygon id="Fill-3" fill="#FFF" points="111.145391 0.225086445 111.145391 2.15545985 116.935824 2.15545985 116.935824 61.5063959 96.3114012 0.225086445 79.5809567 0.225086445 79.5809567 2.15545985 83.4411705 2.15545985 83.4411705 86.0489432 80.7161283 86.0489432 80.7161283 87.9793166 91.7304221 87.9793166 91.7304221 86.0489432 85.9390884 86.0489432 85.9390884 9.75564399 111.826764 87.9793166 119.433742 87.9793166 119.433742 2.15545985 123.293956 2.15545985 123.293956 0.225086445"></polygon>
                    <polygon id="Fill-4" fill="#FFF" points="125.707462 0.225086445 125.707462 2.15545985 129.339876 2.15545985 129.339876 86.0489432 125.707462 86.0489432 125.707462 87.9793166 146.485177 87.9793166 146.485177 86.0489432 142.851638 86.0489432 142.851638 2.15545985 146.485177 2.15545985 146.485177 0.225086445"></polygon>
                    <polygon id="Fill-5" fill="#FFF" points="149.108272 0.225086445 149.108272 26.5627437 150.981092 26.5627437 156.176365 2.15545985 163.868655 2.15545985 163.868655 86.0489432 159.781317 86.0489432 159.781317 87.9793166 181.467304 87.9793166 181.467304 86.0489432 177.379741 86.0489432 177.379741 2.15545985 185.072257 2.15545985 190.266629 26.5627437 192.140349 26.5627437 192.140349 0.225086445"></polygon>
                    <polygon id="Fill-6" fill="#FFF" points="224.476308 0.225086445 224.476308 2.15545985 230.460551 2.15545985 221.235566 41.9852501 209.563309 2.15545985 215.30287 2.15545985 215.30287 0.225086445 193.763872 0.225086445 193.763872 2.15545985 196.392347 2.15545985 209.09803 47.1788256 209.09803 86.0489432 205.009792 86.0489432 205.009792 87.9793166 226.69668 87.9793166 226.69668 86.0489432 222.609342 86.0489432 222.609342 47.1448409 232.958469 2.15545985 236.018233 2.15545985 236.018233 0.225086445"></polygon>
                    <polygon id="Fill-7" fill="#FFF" points="248.677929 0.225086445 248.677929 2.15545985 252.311244 2.15545985 252.311244 86.0489432 248.677929 86.0489432 248.677929 87.9793166 271.15919 87.9793166 271.15919 86.0489432 265.82323 86.0489432 265.82323 43.364667 274.071739 43.364667 276.893348 54.3759202 278.767068 54.3759202 278.767068 29.9684113 276.893348 29.9684113 274.071739 41.0939969 265.82323 41.0939969 265.82323 2.15545985 278.77247 2.15545985 284.387327 23.1570762 286.260822 23.1570762 286.260822 0.225086445"></polygon>
                    <path d="M298.642183,0.225086445 L308.276173,0.225086445 L322.377468,86.0489432 L324.98951,86.0489432 L324.98951,87.9793166 L303.478875,87.9793166 L303.478875,86.0489432 L308.980506,86.0489432 L304.90915,61.3004624 L291.006618,61.3004624 L286.924682,86.0489432 L292.78287,86.0489432 L292.78287,87.9793166 L280.811007,87.9793166 L280.811007,86.0489432 L284.426764,86.0489432 L298.642183,0.225086445 Z M297.966213,18.0938128 L291.375329,59.1438997 L304.648261,59.1438997 L297.966213,18.0938128 Z" id="Combined-Shape" fill="#FFF"></path>
                    <polygon id="Fill-9" fill="#FFF" points="327.055037 0.225086445 327.055037 2.15545985 330.689477 2.15545985 330.689477 86.0489432 327.055037 86.0489432 327.055037 87.9793166 347.833877 87.9793166 347.833877 86.0489432 344.200788 86.0489432 344.200788 2.15545985 347.833877 2.15545985 347.833877 0.225086445"></polygon>
                    <mask id="mask-2" fill="white">
                        <use xlink:href="#path-1"></use>
                    </mask>
                    <g id="Clip-11"></g>
                    <path d="M350.433922,86.0488982 L350.433922,87.9792716 L372.915183,87.9792716 L372.915183,86.0488982 L367.578323,86.0488982 L367.578323,45.9188726 L371.433134,45.9188726 L383.929477,87.9792716 L399.999932,87.9792716 L399.999932,86.0488982 L397.587552,86.0488982 L383.798019,42.0191898 C386.738931,40.446443 394.601396,35.4743304 394.601396,23.0721821 C394.601396,6.97966036 383.974496,0.225041432 369.65058,0.225041432 L350.433922,0.225041432 L350.433922,2.15541483 L354.067237,2.15541483 L354.067237,86.0488982 L350.433922,86.0488982 Z M369.508993,2.26862199 C376.094474,2.26862199 380.97641,5.50414118 380.97641,20.0918854 L380.97641,27.0733688 C380.97641,39.334177 377.570219,43.875067 370.337355,43.875067 L367.578323,43.875067 L367.578323,2.26862199 L369.508993,2.26862199 Z" id="Fill-10" fill="#FFF" mask="url(#mask-2)"></path>
                </g>
            </g>
        </g>
    </g>
</svg>