<?xml version="1.0" encoding="UTF-8"?>
<svg width="401px" height="81px" viewBox="0 0 401 81" version="1.1" xmlns="http://www.w3.org/2000/svg" xmlns:xlink="http://www.w3.org/1999/xlink">
    <!-- Generator: Sketch 52.3 (67297) - http://www.bohemiancoding.com/sketch -->
    <title>logo / Wired WHITE</title>
    <desc>Created with Sketch.</desc>
    <defs>
        <polygon id="path-1" points="320.832823 0.743119266 400.978465 0.743119266 400.978465 80.5897239 320.832823 80.5897239"></polygon>
    </defs>
    <g id="&gt;&gt;&gt;-3.-Brands-&amp;-Footprint" stroke="none" stroke-width="1" fill="none" fill-rule="evenodd">
        <g id="CNI-Brands---Logos---WHITE" transform="translate(-1307.000000, -1484.000000)">
            <g id="logo-/-Wired-WHITE" transform="translate(1307.000000, 1484.000000)">
                <g id="Group">
                    <polygon id="Fill-1" fill="#FFFFFF" points="255.323829 22.419611 255.323829 13.2487761 302.675988 13.2487761 302.675988 31.0100697 292.667325 31.0100697 292.667325 22.419611 273.492842 22.419611 273.492842 35.7028679 288.749407 35.7028679 288.749407 44.5690239 273.492842 44.5690239 273.492842 59.5324734 292.783912 59.5324734 292.783912 49.8013266 302.686384 49.8013266 302.686384 68.7033083 255.323829 68.7033083 255.323829 59.5324734 262.829212 59.5324734 262.829212 22.419611"></polygon>
                    <polygon id="Fill-2" fill="#FFFFFF" points="139.09836 59.038522 139.09836 68.1120083 100.78281 68.1120083 100.78281 59.038522 114.51706 59.038522 114.51706 22.3217422 100.78281 22.3217422 100.78281 13.2489991 139.09836 13.2489991 139.09836 22.3217422 125.316584 22.3217422 125.316584 59.038522"></polygon>
                    <path d="M79.7329835,80.5893523 L7.42592603e-05,80.5893523 L7.42592603e-05,0.748618349 L79.7092206,0.748618349 L79.7329835,80.5893523 Z M74.014278,12.572389 L63.4011446,12.572389 L55.8705131,56.5620771 L55.681152,56.5620771 L46.8673206,15.7930679 C46.3341391,13.0487284 45.4021854,12.4141046 42.812765,12.4141046 L37.0680687,12.4141046 C34.5224613,12.4141046 33.545952,13.095545 33.0127706,15.7930679 L24.1692354,56.5620771 L23.9791317,56.5620771 L16.4796891,12.572389 L5.09648722,12.572389 L16.0348761,65.4297193 C16.4648372,67.7616275 17.3381261,68.3323431 19.9282891,68.3323431 L27.3735224,68.3323431 C29.8597224,68.3323431 30.7634576,67.7304165 31.2661928,65.3189945 L39.5119409,27.0149119 L39.701302,27.0149119 L47.9923483,65.3189945 C48.4958261,67.7304165 49.2948557,68.3323431 51.8857613,68.3323431 L59.2567354,68.3323431 C61.8468983,68.3323431 62.7201872,67.7304165 63.1494057,65.4297193 L74.014278,12.572389 Z" id="Fill-6" fill="#FFFFFF"></path>
                    <path d="M240.466185,80.6039174 L160.099844,80.6039174 L160.156281,0.743862385 L240.475096,0.743862385 L240.466185,80.6039174 Z M189.247346,37.5394128 L189.247346,22.0996239 L207.417844,22.0996239 C209.95157,22.0996239 210.747629,22.3322202 211.186501,22.7327615 C211.955827,23.4357523 212.754114,24.6723028 212.754114,29.614789 C212.754114,34.6040917 211.93652,36.0561468 211.155313,36.7948073 C210.722381,37.2027798 209.95157,37.5394128 207.417844,37.5394128 L189.247346,37.5394128 Z M212.263261,53.9133028 C212.396185,59.7757706 212.73852,64.4039174 213.292494,68.126945 L224.336331,68.126945 C224.019244,65.1165688 223.717009,60.1748257 223.46527,53.1241101 C223.176401,45.0456606 220.6152,43.6946697 214.851196,42.5383761 L214.851196,42.3488807 C221.233037,41.3360092 224.019244,38.3278624 224.019244,28.4421468 C224.019244,20.3153945 222.689261,17.3533211 220.457027,15.1195046 C218.651042,13.3129817 215.895281,12.679844 211.683296,12.679844 L177.786172,12.679844 L177.786172,68.126945 L189.247346,68.126945 L189.247346,46.5467615 L205.074222,46.5467615 C208.335689,46.5467615 209.647107,46.8172569 210.61619,47.6554954 C211.643196,48.5435229 212.165239,49.5727431 212.263261,53.9133028 Z" id="Fill-8" fill="#FFFFFF"></path>
                    <mask id="mask-2" fill="white">
                        <use xlink:href="#path-1"></use>
                    </mask>
                    <g id="Clip-4"></g>
                    <path d="M400.978613,80.5897239 L320.832823,80.5897239 L320.944954,0.743044954 L400.978613,0.743044954 L400.978613,80.5897239 Z M375.916113,40.4278431 C375.916113,52.3229532 374.932178,55.3719716 372.837324,57.0491917 C371.167976,58.3875495 369.253573,58.6966872 365.129213,58.6966872 L350.005573,58.6966872 L350.005573,22.0958339 L365.129213,22.0958339 C369.309267,22.0958339 371.069954,22.295733 372.837324,23.6950266 C374.972278,25.3841367 375.916113,28.389311 375.916113,40.4278431 Z M338.546626,12.6775404 L338.546626,68.1149807 L365.846558,68.1149807 C373.684623,68.1149807 377.97458,66.9586872 381.319217,63.9966138 C385.254958,60.5284761 387.164163,54.0648248 387.164163,40.395889 C387.164163,26.6786505 385.254958,20.264045 381.319217,16.7959073 C377.97458,13.8338339 373.684623,12.6775404 365.846558,12.6775404 L338.546626,12.6775404 Z" id="Fill-3" fill="#FFFFFF" mask="url(#mask-2)"></path>
                </g>
            </g>
        </g>
    </g>
</svg>